{"title":"Paul (2011) BRRip XviD AC3 Soup","uid":11950391,"size":1544319257,"categoryP":"video","categoryS":"hd___movies","magnet":"?xt=urn:btih:b64d855b0c0c5e411a9fdfb6a5942bb2fb285e3e&amp;dn=Paul+%282011%29+BRRip+XviD+AC3+Soup&amp;tr=udp%3A%2F%2Ftracker.openbittorrent.com%3A80&amp;tr=udp%3A%2F%2Fopen.demonii.com%3A1337&amp;tr=udp%3A%2F%2Ftracker.coppersurfer.tk%3A6969&amp;tr=udp%3A%2F%2Fexodus.desync.com%3A6969","seeders":11,"leechers":4,"uploader":"peaSoup","files":5,"time":1432148536,"description":" &lt;a href=&quot;http://extraimago.com/images/2015/05/20/22385_front.jpg&quot; rel=&quot;nofollow&quot; target=&quot;_NEW&quot;&gt;http://extraimago.com/images/2015/05/20/22385_front.jpg&lt;/a&gt;                              Storyline\n\nTwo sci-fi geeks take a pilgrimage to America's UFO heartland. While there, they accidentally meet an alien who brings them on an insane road trip that alters their universe forever. For the past 60 years, an alien named Paul (voiced by Seth Rogen) has been hanging out at a top-secret military base. When he discovers he's been taken prisoner, the space-traveling smart ass decides to escape the compound and hop on the first vehicle out of town - a rented RV containing Earthlings Graeme Willy (Simon Pegg) and Clive Gollings (Nick Frost).                                       &lt;a href=&quot; http://extraimago.com/images/2015/05/20/Paul2011BRRipXviDAC3Soup.avi_snapshot_00.11.24_2015.05.20_09.09.44.jpg&quot; rel=&quot;nofollow&quot; target=&quot;_NEW&quot;&gt; http://extraimago.com/images/2015/05/20/Paul2011BRRipXviDAC3Soup.avi_snapshot_00.11.24_2015.05.20_09.09.44.jpg&lt;/a&gt;          &lt;a href=&quot; http://extraimago.com/images/2015/05/20/Paul2011BRRipXviDAC3Soup.avi_snapshot_00.27.05_2015.05.20_09.11.38.jpg&quot; rel=&quot;nofollow&quot; target=&quot;_NEW&quot;&gt; http://extraimago.com/images/2015/05/20/Paul2011BRRipXviDAC3Soup.avi_snapshot_00.27.05_2015.05.20_09.11.38.jpg&lt;/a&gt;          &lt;a href=&quot; http://extraimago.com/images/2015/05/20/Paul2011BRRipXviDAC3Soup.avi_snapshot_01.03.47_2015.05.20_09.14.26.jpg&quot; rel=&quot;nofollow&quot; target=&quot;_NEW&quot;&gt; http://extraimago.com/images/2015/05/20/Paul2011BRRipXviDAC3Soup.avi_snapshot_01.03.47_2015.05.20_09.14.26.jpg&lt;/a&gt;          &lt;a href=&quot; http://extraimago.com/images/2015/05/20/Paul2011BRRipXviDAC3Soup.avi_snapshot_01.31.05_2015.05.20_09.15.43.jpg&quot; rel=&quot;nofollow&quot; target=&quot;_NEW&quot;&gt; http://extraimago.com/images/2015/05/20/Paul2011BRRipXviDAC3Soup.avi_snapshot_01.31.05_2015.05.20_09.15.43.jpg&lt;/a&gt;           Format                      : AVI\nFormat/Info                 : Audio Video Interleave\nFormat profile              : OpenDML\nFile size                   : 1.43 GiB\nDuration                    : 1h 43mn\nOverall bit rate            : 1 972 Kbps\nMovie name                  : Paul (2011) BRRip XviD AC3 Soup\nWriting application         : Lavf56.9.100\nOriginal source form/Name   : PAUL_G55\n\nVideo\nID                          : 0\nFormat                      : MPEG-4 Visual\nFormat profile              : Advanced Simple@L5\nFormat settings, BVOP       : 2\nFormat settings, QPel       : No\nFormat settings, GMC        : No warppoints\nFormat settings, Matrix     : Default (MPEG)\nMuxing mode                 : Packed bitstream\nCodec ID                    : XVID\nCodec ID/Hint               : XviD\nDuration                    : 1h 43mn\nBit rate                    : 1 512 Kbps\nWidth                       : 720 pixels\nHeight                      : 308 pixels\nDisplay aspect ratio        : 2.35:1\nFrame rate                  : 23.976 fps\nColor space                 : YUV\nChroma subsampling          : 4:2:0\nBit depth                   : 8 bits\nScan type                   : Progressive\nCompression mode            : Lossy\nBits/(Pixel*Frame)          : 0.284\nStream size                 : 1.09 GiB (77%)\nWriting library             : XviD 64\n\nAudio\nID                          : 1\nFormat                      : AC-3\nFormat/Info                 : Audio Coding 3\nMode extension              : CM (complete main)\nFormat settings, Endianness : Big\nCodec ID                    : 2000\nDuration                    : 1h 43mn\nBit rate mode               : Constant\nBit rate                    : 448 Kbps\nChannel(s)                  : 6 channels\nChannel positions           : Front: L C R, Side: L R, LFE\nSampling rate               : 48.0 KHz\nCompression mode            : Lossy\nStream size                 : 332 MiB (23%)\nAlignment                   : Aligned on interleaves\nInterleave, duration        : 32 ms (0.77 video frame)","torrent":{"xt":"urn:btih:b64d855b0c0c5e411a9fdfb6a5942bb2fb285e3e","amp;dn":"Paul+%282011%29+BRRip+XviD+AC3+Soup","amp;tr":["udp%3A%2F%2Ftracker.openbittorrent.com%3A80","udp%3A%2F%2Fopen.demonii.com%3A1337","udp%3A%2F%2Ftracker.coppersurfer.tk%3A6969","udp%3A%2F%2Fexodus.desync.com%3A6969"],"infoHash":"b64d855b0c0c5e411a9fdfb6a5942bb2fb285e3e","infoHashBuffer":{"type":"Buffer","data":[182,77,133,91,12,12,94,65,26,159,223,182,165,148,43,178,251,40,94,62]},"announce":[],"urlList":[]}}